# xmcd
#
# Track frame offsets:
#	150
#	22703
#	34974
#	52033
#
# Disc length: 875 seconds
#
# Revision: 1
# Processed by: cddbd v1.4PL0 Copyright (c) Steve Scherf et al.
# Submitted via: audiograbber 1.80
#
DISCID=29036904
DTITLE=Mother Cat - Mothercat
DYEAR=1900
DGENRE=
TTITLE0=No Release
TTITLE1=Sex and Everything
TTITLE2=The Fool
TTITLE3=Soft Targets Only
EXTD=
EXTT0=
EXTT1=
EXTT2=
EXTT3=
PLAYORDER=
